<svg width="1080" height="1080" viewBox="0 0 1080 1080" fill="none" xmlns="http://www.w3.org/2000/svg">
<path d="M977.217 149.594C953.053 167.74 930.399 189.416 909.256 214.619C929.728 227.389 947.012 241.503 961.108 256.962C975.203 272.084 986.446 287.542 994.836 303.337C1003.56 319.131 1009.77 334.757 1013.46 350.216C1017.15 365.674 1019 379.956 1019 393.062C1019 425.995 1012.79 454.727 1000.37 479.259C987.956 503.455 971.511 523.618 951.039 539.748C930.903 555.878 907.578 567.976 881.065 576.041C854.888 583.771 827.703 587.635 799.512 587.635C767.965 587.635 736.921 584.107 706.381 577.05C692.286 606.958 677.015 636.698 660.571 666.271C644.126 695.843 626.171 724.239 606.706 751.46C587.576 778.344 566.6 803.547 543.779 827.071C521.293 850.258 496.962 870.253 470.784 887.056C444.942 904.194 416.919 917.636 386.714 927.382C356.51 937.127 324.291 942 290.059 942C256.834 942 226.126 936.623 197.935 925.87C169.744 915.116 145.412 899.49 124.94 878.991C104.468 858.155 88.5267 832.952 77.116 803.379C65.7053 773.471 60 739.362 60 701.052C60 651.317 68.3902 603.429 85.1706 557.391C102.287 511.352 125.611 468.337 155.145 428.347C185.014 388.357 220.085 352.064 260.358 319.467C300.631 286.87 344.092 258.978 390.742 235.791C437.391 212.603 486.222 194.624 537.235 181.855C588.247 169.085 639.259 162.7 690.272 162.7C730.209 162.7 765.616 166.06 796.492 172.781C827.703 179.166 855.223 187.735 879.051 198.489C892.476 186.727 906.571 175.806 921.338 165.724C936.105 155.307 952.046 146.065 969.162 138L977.217 149.594ZM664.094 535.211C679.532 502.95 694.803 472.034 709.905 442.461C725.007 412.553 740.278 384.325 755.715 357.777C771.489 330.893 787.766 305.857 804.546 282.67C821.327 259.146 839.45 237.471 858.915 217.644C836.765 208.907 812.601 202.522 786.424 198.489C760.582 194.456 732.894 192.44 703.361 192.44C662.752 192.44 622.983 197.313 584.052 207.058C545.121 216.804 507.533 230.246 471.288 247.384C435.378 264.187 400.978 284.182 368.088 307.369C335.534 330.557 305.162 355.76 276.971 382.981C249.115 410.201 223.777 438.765 200.955 468.673C178.47 498.246 159.172 528.154 143.063 558.399C127.289 588.643 115.04 618.552 106.314 648.124C97.9237 677.36 93.7286 705.253 93.7286 731.801C93.7286 757.676 98.4271 781.872 107.824 804.387C117.221 826.567 130.142 845.89 146.587 862.356C163.367 878.823 183.168 891.76 205.99 901.17C229.146 910.579 254.485 915.284 282.005 915.284C324.627 915.284 362.886 906.883 396.783 890.08C430.679 873.278 462.058 849.418 490.921 818.502C519.783 787.249 547.135 749.779 572.977 706.093C598.819 662.406 625.164 613.679 652.013 559.911C617.109 546.133 584.723 528.49 554.854 506.983L562.909 492.869C579.018 500.934 595.295 508.663 611.74 516.056C628.52 523.113 645.972 529.498 664.094 535.211ZM966.142 364.33C966.142 334.421 959.597 308.882 946.509 287.71C933.756 266.539 915.801 248.897 892.644 234.782C862.103 274.436 832.905 320.643 805.05 373.403C777.53 425.827 749.003 484.3 719.47 548.821C729.202 550.502 738.935 551.846 748.668 552.854C758.4 553.526 768.301 553.862 778.369 553.862C803.875 553.862 827.871 549.325 850.357 540.252C873.178 531.179 893.147 518.409 910.263 501.942C927.379 485.14 940.971 465.145 951.039 441.957C961.108 418.77 966.142 392.894 966.142 364.33Z" fill="currentColor"/>
<path d="M339.336 748.183L401.11 623.873C390.225 637.867 378.795 650.862 366.821 662.857C354.848 675.033 342.602 684.938 330.084 692.571C320.832 698.023 312.668 701.749 305.593 703.748C298.517 705.929 291.805 707.019 285.455 707.019C279.287 707.019 274.207 706.02 270.216 704.021C266.225 702.022 263.05 699.386 260.691 696.115C258.333 692.844 256.7 689.209 255.793 685.211C254.886 681.394 254.432 677.577 254.432 673.761C254.432 665.219 255.884 656.768 258.786 648.408C261.689 640.048 265.317 631.779 269.672 623.601C273.844 615.422 278.47 607.335 283.55 599.338C288.63 591.524 293.347 583.8 297.701 576.167C301.873 568.715 305.411 561.355 308.314 554.085C311.217 546.816 312.668 539.819 312.668 533.094C312.668 529.823 312.305 527.097 311.579 524.916C310.672 522.917 309.584 521.281 308.314 520.009C306.862 518.919 305.32 518.192 303.688 517.828C302.055 517.465 300.422 517.283 298.789 517.283C295.342 517.283 291.351 518.828 286.816 521.917C282.099 525.189 277.11 529.369 271.849 534.457C266.587 539.728 261.236 545.634 255.793 552.177C250.169 558.901 244.817 565.717 239.737 572.623C234.476 579.711 229.578 586.617 225.042 593.341C220.507 600.247 216.516 606.517 213.069 612.151L203 604.518C204.996 600.52 207.989 595.249 211.98 588.707C215.79 582.164 220.326 575.076 225.587 567.443C230.848 559.992 236.653 552.45 243.003 544.817C249.171 537.365 255.702 530.55 262.596 524.371C269.49 518.192 276.565 513.194 283.822 509.377C290.898 505.379 297.882 503.38 304.776 503.38C309.493 503.38 314.029 504.107 318.383 505.561C322.737 507.015 326.546 509.196 329.812 512.103C333.078 515.193 335.708 519.1 337.704 523.826C339.699 528.551 340.697 534.185 340.697 540.727C340.697 548.542 339.155 557.538 336.071 567.716C332.805 577.893 326.637 589.525 317.566 602.61C310.128 613.332 303.688 622.238 298.245 629.326C292.802 636.595 288.358 642.865 284.911 648.136C281.282 653.588 278.652 658.495 277.019 662.857C275.386 667.4 274.57 672.398 274.57 677.85C274.57 682.575 275.93 686.21 278.652 688.754C281.373 691.299 284.457 692.571 287.904 692.571C297.157 692.571 306.681 689.936 316.478 684.665C326.274 679.395 335.98 672.398 345.595 663.674C355.211 655.133 364.644 645.319 373.897 634.233C383.149 623.146 391.948 611.788 400.293 600.156C408.457 588.707 416.077 577.439 423.152 566.353C430.046 555.267 436.033 545.271 441.113 536.366C446.192 527.642 450.093 520.554 452.814 515.102C455.717 509.832 457.259 507.106 457.44 506.924C465.06 491.294 472.498 476.21 479.755 461.671C487.012 446.95 493.815 433.047 500.165 419.961C506.696 406.876 512.683 394.972 518.125 384.249C523.568 373.345 528.285 363.895 532.276 355.898C536.267 347.901 539.351 341.631 541.528 337.088C543.887 332.544 545.157 330.182 545.338 330L575 346.902C560.124 375.072 546.699 400.515 534.725 423.233C522.751 445.95 511.322 467.395 500.437 487.568C489.552 507.56 478.848 527.006 468.326 545.907C457.803 564.808 446.646 584.527 434.854 605.063C423.061 625.782 410.271 647.954 396.484 671.58C382.514 695.388 366.64 722.195 348.861 752L339.336 748.183Z" fill="currentColor"/>
</svg>
